# xmcd CD database file
#
# Track frame offsets:
#	150
#	13963
#	26158
#	43457
#	57188
#	68966
#	82129
#	94792
#	107321
#	118910
#	132684
#	147961
#	159790
#	168284
#	177279
#	187177
#	200943
#	213967
#	221981
#	229554
#	239443
#	250243
#	258874
#	273986
#
# Disc length: 3817 seconds
#
# Revision: 0
# Processed by: cddbd v1.5.2PL0 Copyright (c) Steve Scherf et al.
# Submitted via: CDex 1.51
#
DISCID=720ee718
DTITLE=Joe Bushkin -  Seven Classic Albums - CD 2
DYEAR=1900
DGENRE=Jazz
TTITLE0=Manhatten
TTITLE1=Laura
TTITLE2=Stormy Weather
TTITLE3=September Song
TTITLE4=Embraceable You
TTITLE5=Come Rain Or Come Shine
TTITLE6=I Cover The Waterfront
TTITLE7=I Can't Get Started
TTITLE8=The Song Is You
TTITLE9=As Time Goes By
TTITLE10=It's The Talk Of The Town
TTITLE11=Above All, You
TTITLE12=Blue, Turning Grey Over You
TTITLE13=Serenade In Blue
TTITLE14=Blue Moon
TTITLE15=Under A Blanket Of Blue
TTITLE16=I Gotta Right To Sing The Blues
TTITLE17=Beyond The Blue Horizon
TTITLE18=Where The Blue Of The Night
TTITLE19=The Blue Room
TTITLE20=The Blue Prelude
TTITLE21=My Blue Heaven
TTITLE22=Blue And Sentimental
TTITLE23=Blue Angel Blues
EXTD=
EXTT0=
EXTT1=
EXTT2=
EXTT3=
EXTT4=
EXTT5=
EXTT6=
EXTT7=
EXTT8=
EXTT9=
EXTT10=
EXTT11=
EXTT12=
EXTT13=
EXTT14=
EXTT15=
EXTT16=
EXTT17=
EXTT18=
EXTT19=
EXTT20=
EXTT21=
EXTT22=
EXTT23=
PLAYORDER=
